<svg width="156" height="35" viewBox="0 0 156 35" fill="none" xmlns="http://www.w3.org/2000/svg">
<g opacity="0.99">
<path d="M14.6343 12.2148H8.99951V9.5H23.3647V12.2148H17.73V24.7637H14.6343V12.2148Z" fill="#4D5FFF"/>
<path d="M32.553 20.9844L25.8831 9.5H29.389L34.0862 18.1816L38.7249 9.5H42.2308L35.6487 20.9648V24.7637H32.553V20.9844Z" fill="#4D5FFF"/>
<path d="M45.7745 9.5H53.8214C54.9933 9.5 56.0089 9.62695 56.8683 9.88086C57.7276 10.1348 58.4405 10.5026 59.0069 10.9844C59.5733 11.4596 59.9933 12.0423 60.2667 12.7324C60.5466 13.4225 60.6866 14.2005 60.6866 15.0664C60.6866 15.8802 60.5499 16.6322 60.2765 17.3223C60.003 18.0124 59.5831 18.6113 59.0167 19.1191C58.4568 19.6204 57.7472 20.0143 56.8878 20.3008C56.0284 20.5807 55.0128 20.7207 53.8409 20.7207L48.8702 20.7109V24.7637H45.7745V9.5ZM53.8995 18.0352C54.4855 18.0352 54.9965 17.9668 55.4327 17.8301C55.8754 17.6868 56.2433 17.4883 56.5362 17.2344C56.8357 16.974 57.0571 16.6615 57.2003 16.2969C57.35 15.9258 57.4249 15.5156 57.4249 15.0664C57.4249 14.1615 57.1287 13.4583 56.5362 12.957C55.9503 12.4492 55.0714 12.1953 53.8995 12.1953H48.8702V18.0352H53.8995Z" fill="#4D5FFF"/>
<path d="M65.2753 9.5H78.2733V12.2148H68.371V15.2617H77.1405V17.8105H68.371V22.0586H78.4784V24.7637H65.2753V9.5Z" fill="#4D5FFF"/>
</g>
<path opacity="0.99" d="M34 9V2.1C34 2.04477 33.9552 2 33.9 2H2.1C2.04477 2 2 2.04477 2 2.1V31.9C2 31.9552 2.04477 32 2.1 32H33.9C33.9552 32 34 31.9552 34 31.9V27.5" stroke="#4D5FFF" stroke-width="3"/>
<path d="M83.1157 10H88.7114C90.3455 10 91.7648 10.1758 92.9692 10.5273C94.1737 10.8789 95.1698 11.3835 95.9575 12.041C96.7518 12.6921 97.341 13.4863 97.7251 14.4238C98.1157 15.3548 98.311 16.403 98.311 17.5684C98.311 18.6751 98.119 19.7005 97.7349 20.6445C97.3507 21.582 96.7648 22.3958 95.9771 23.0859C95.1893 23.7695 94.1932 24.3066 92.9888 24.6973C91.7843 25.0814 90.3651 25.2734 88.731 25.2734L83.1157 25.2637V10ZM89.4731 22.5879C90.3976 22.5879 91.2082 22.4707 91.9048 22.2363C92.6014 21.9954 93.1808 21.6569 93.6431 21.2207C94.1118 20.7845 94.4634 20.2572 94.6978 19.6387C94.9321 19.0202 95.0493 18.3301 95.0493 17.5684C95.0493 16.8197 94.9321 16.1458 94.6978 15.5469C94.4634 14.9414 94.1118 14.4303 93.6431 14.0137C93.1808 13.5905 92.6014 13.265 91.9048 13.0371C91.2082 12.8092 90.3976 12.6953 89.4731 12.6953H86.2114V22.5879H89.4731Z" fill="#0F1629"/>
<path d="M107.822 10H111.103L118.486 25.2637H115.234L114.013 22.6953H105.097L103.915 25.2637H100.654L107.822 10ZM112.792 20.1465L109.492 13.2129L106.279 20.1465H112.792Z" fill="#0F1629"/>
<path d="M126.658 12.7148H121.024V10H135.389V12.7148H129.754V25.2637H126.658V12.7148Z" fill="#0F1629"/>
<path d="M145.104 10H148.386L155.768 25.2637H152.516L151.296 22.6953H142.38L141.198 25.2637H137.936L145.104 10ZM150.075 20.1465L146.774 13.2129L143.561 20.1465H150.075Z" fill="#0F1629"/>
</svg>
